<svg xmlns="http://www.w3.org/2000/svg" width="250" height="250" viewBox="0 0 250 250" fill="none">
<rect width="250" height="250" fill="#FEFFFE"/>
<path d="M 26.79,6 H 222.12 V 92.73 C 203.47,92.73 188.73,92.17 170.75,97.18 C 154.02,102.19 149.35,106.06 136.12,112.38 C 127.62,116.57 120.25,115.39 109.26,109.81 C 90.92,100.31 73.06,93.28 42.78,93.01 L 26.81,92.87 L 26.79,6 Z" fill="url(#paint0_linear_133_145)"/>
<path d="M 26.81,102.21 H 38.12 C 59.71,102.21 74.48,104.15 92.06,111.44 C 113.15,120.52 132.71,132.87 165.12,136.37 L 165.16,137.23 L 132.08,151.32 C 114.91,150.09 108.48,149.38 91.11,139.78 C 76.11,131.42 65.66,127.79 30.88,127.79 H 26.79 L 26.81,102.21 Z" fill="url(#paint1_linear_133_145)"/>
<path d="M 26.91,136.66 C 45.31,136.66 59.78,137.75 70.19,141.72 C 84.06,147.38 96.39,155.46 116.87,157.81 C 104.78,164.91 91.01,168.91 76.62,167.82 C 64.09,167.11 61.05,163.81 30.12,163.53 H 27.51 L 26.91,136.66 Z" fill="url(#paint2_linear_133_145)"/>
<path d="M 221.92,102.07 V 127.93 C 202.82,127.93 197.22,129.06 184.46,130.49 C 166.84,132.69 151.26,128.97 133.31,121.17 C 143.01,118.92 146.82,115.24 155.12,111.53 C 172.16,104.19 185.19,102.07 209.19,102.07 H 221.92 Z" fill="url(#paint3_linear_133_145)"/>
<path d="M 221.88,136.79 L 221.74,163.44 C 205.01,163.44 192.17,164.91 182.99,168.81 C 166.26,175.72 153.03,182.92 133.38,183.99 C 115.39,185.41 101.82,183.16 83.84,174.36 C 95.78,175.31 109.22,169.46 122.19,165.13 C 137.76,159.37 144.99,153.61 162.97,146.98 C 177.97,140.66 186.82,136.79 209.99,136.79 H 221.88 Z" fill="url(#paint4_linear_133_145)"/>
<path d="M 29.53,171.91 H 37.88 C 51.08,171.91 60.98,174.98 72.48,179.71 C 85.71,185.96 96.7,192.87 122.19,193.36 C 144.92,193.36 157.76,187.32 167.72,182.71 C 182.72,175.64 193.17,171.91 219.28,171.91 C 215.16,188.92 205.21,199.61 190.21,208.41 C 169.33,221.32 153.91,231.09 124.42,243.26 C 102.97,233.76 83.84,224.41 61.12,209.98 C 45.62,200.71 34.81,191.44 29.53,171.91 Z" fill="url(#paint5_linear_133_145)"/>
<path d="M 124.42,23.68 C 135.71,44.84 148.75,57.89 148.75,73.99 C 148.75,87.47 136.93,98.71 123.96,98.71 C 110.73,98.71 99.99,87.05 99.99,74.63 C 99.99,60.94 109.49,49.28 124.42,23.68 Z" fill="#FEFFFE"/>
<path d="M 124.42,40.7 C 132.92,55.42 140.62,65.19 140.62,74.32 C 140.62,84.37 132.58,90.55 123.95,90.55 C 114.45,90.55 107.92,82.92 107.92,74.84 C 107.92,65.83 116.7,54.66 124.42,40.7 Z" fill="url(#paint6_linear_133_145)"/>
<defs>
<linearGradient id="paint0_linear_133_145" x1="124.457" y1="6" x2="124.457" y2="115.182" gradientUnits="userSpaceOnUse">
<stop stop-color="#227FBE"/>
<stop offset="1" stop-color="#2678B5"/>
</linearGradient>
<linearGradient id="paint1_linear_133_145" x1="95.9752" y1="102.206" x2="95.9752" y2="151.316" gradientUnits="userSpaceOnUse">
<stop stop-color="#3E8CC0"/>
<stop offset="1" stop-color="#3A84BA"/>
</linearGradient>
<linearGradient id="paint2_linear_133_145" x1="71.8888" y1="136.656" x2="71.8888" y2="168.158" gradientUnits="userSpaceOnUse">
<stop stop-color="#356DA8"/>
<stop offset="1" stop-color="#3467A3"/>
</linearGradient>
<linearGradient id="paint3_linear_133_145" x1="177.615" y1="102.07" x2="177.615" y2="131.046" gradientUnits="userSpaceOnUse">
<stop stop-color="#3E8CC0"/>
<stop offset="1" stop-color="#3A84BA"/>
</linearGradient>
<linearGradient id="paint4_linear_133_145" x1="152.859" y1="136.791" x2="152.859" y2="184.582" gradientUnits="userSpaceOnUse">
<stop stop-color="#356DA8"/>
<stop offset="1" stop-color="#3467A3"/>
</linearGradient>
<linearGradient id="paint5_linear_133_145" x1="124.403" y1="171.914" x2="124.403" y2="243.26" gradientUnits="userSpaceOnUse">
<stop stop-color="#1D3C59"/>
<stop offset="1" stop-color="#21425F"/>
</linearGradient>
<linearGradient id="paint6_linear_133_145" x1="124.271" y1="40.6953" x2="124.271" y2="90.5508" gradientUnits="userSpaceOnUse">
<stop stop-color="#4BA8D5"/>
<stop offset="1" stop-color="#2D5A94"/>
</linearGradient>
</defs>
</svg>