<svg xmlns="http://www.w3.org/2000/svg" width="250" height="250" viewBox="0 0 250 250" fill="none">
<path d="M 28.99,6.21 V 92.87 H 36.49 C 64.42,92.87 80.11,96.13 99.11,105.06 C 109.96,110.21 116.16,114.87 126.29,114.62 C 134.09,114.41 142.79,107.72 156.11,102.64 C 171.18,96.37 185.78,93.28 219.82,93.08 V 6.21 H 28.99 Z M 124.58,98.94 C 111.26,98.94 100.78,87.71 100.78,73.8 C 100.78,63.47 108.28,52.11 116.84,37.93 C 119.43,33.61 124.18,23.28 124.45,23.28 C 124.72,23.28 129.34,32.34 132.99,37.93 C 141.54,51.25 148.23,62.48 148.23,73.73 C 148.16,87.12 137.68,98.94 124.58,98.94 Z" fill="black"/>
<path d="M 124.58,40.66 C 116.36,55.04 108.21,66.27 108.21,75.13 C 108.21,84.86 115.24,90.79 124.45,90.79 C 134.12,90.79 140.52,82.64 140.52,74.49 C 140.52,66.68 132.72,55.45 124.58,40.66 Z" fill="black"/>
<path d="M 219.82,102.31 C 192.97,101.43 171.04,104.52 152.81,114.19 C 144.8,118.51 140.49,120.67 133.26,121.75 C 143.74,127.17 155.69,130.76 172.65,130.76 C 183.13,130.76 190.63,127.84 211.12,127.84 H 219.82 V 102.31 Z" fill="black"/>
<path d="M 28.99,102.31 V 127.84 H 38.66 C 62.45,127.84 73.44,132.3 86.29,138.63 C 99.61,145.32 106.04,149.44 132.38,150.85 C 142.12,146.74 151.21,141.18 164.92,136.99 C 148.69,136.11 137.01,132.03 121.61,124.53 C 100.22,114.06 85.92,102.71 44.69,102.31 H 28.99 Z" fill="black"/>
<path d="M 28.99,136.92 L 29.26,163.63 H 33.91 C 51.67,163.63 57.81,166.09 69.96,167.84 C 84.75,169.86 98.07,167.03 116.56,158.61 C 103.24,157.19 93.96,151.7 80.11,145.32 C 68.43,139.76 58.83,137.12 38.66,136.92 H 28.99 Z" fill="black"/>
<path d="M 219.82,137.05 C 204.42,136.65 190.12,137.73 178.44,142.25 C 154.13,151.05 144.26,159.06 124.18,166.69 C 111.73,171.64 101.05,174.63 90.13,174.63 H 84.81 C 97.12,180.96 106.31,184.15 122.69,184.15 C 137.95,184.15 152.48,179.35 165.33,173.35 C 177.84,166.82 189.38,163.73 208.81,163.43 H 219.55 L 219.82,137.05 Z" fill="black"/>
<path d="M 30.81,172.04 C 34.86,187.44 41.62,197.31 61.25,208.73 C 83.05,221.78 102.73,233.2 124.52,243.46 C 143.95,234.61 165.6,223.39 187.87,208.73 C 204.09,198.25 213.76,188.31 217.54,172.04 C 201.71,172.04 188.91,174.5 176.9,179.96 C 161.5,187.16 148.18,193.49 123.71,193.49 C 101.12,193.49 88.61,187.44 78.13,182.11 C 66.05,176.11 56.11,172.31 36.16,172.04 H 30.81 Z" fill="black"/>
</svg>