<svg xmlns="http://www.w3.org/2000/svg" width="217" height="260" viewBox="0 0 217 260" fill="none">
<path d="M 0,0 V 259.68 H 216.98 V 0 H 0 Z" fill="black"/>
<path d="M 6.04,6.29 L 6.01,96.91 C 27.36,96.76 48.96,97.05 70.13,104.31 C 81.69,108.52 91.11,115.11 100.72,118.93 C 107.88,120.97 112.91,119.88 119.66,116.75 C 128.92,112.53 138.32,106.94 150.03,103.72 C 167.29,98.71 183.96,96.88 211.02,96.62 L 212.01,6.29 H 6.04 Z" fill="white"/>
<path d="M 212.01,106.31 C 188.92,105.99 167.01,107.01 150.09,113.5 C 138.09,117.51 130.49,123.98 117.32,126.61 C 127.94,132.45 141.96,136.34 157.17,136.62 C 170.49,136.88 180.78,133.49 202.33,133.49 H 211.82 L 212.01,106.31 Z" fill="white"/>
<path d="M 6.01,106.52 V 133.09 C 26.67,133.09 42.95,133.91 59.91,140.46 C 71.61,145.24 80.62,151.25 91.08,154.21 C 98.44,156.26 106.31,157.08 116.21,157.81 C 127.46,152.82 137.24,147.04 151.72,142.91 C 131.85,142.28 116.18,135.28 95.96,126.23 C 84.87,121.17 76.96,116.18 64.99,112.49 C 49.11,107.34 32.71,106.41 6.01,106.52 Z" fill="white"/>
<path d="M 6.27,142.76 L 6.72,170.16 C 21.24,170.16 29.64,170.86 40.98,173.36 C 49.69,175.41 57.12,176.19 63.18,175.87 C 76.46,175.13 87.02,171.73 99.79,165.69 C 87.02,163.83 77.76,158.39 62.92,151.71 C 51.18,146.08 39.87,143.28 14.48,142.76 H 6.27 Z" fill="white"/>
<path d="M 212.01,142.91 C 190.72,143.23 179.79,143.62 166.65,147.54 C 149.97,152.57 137.97,159.44 125.69,165.73 C 109.22,173.69 90.12,181.24 74.77,182.52 L 65.96,182.61 C 78.83,188.87 88.89,192.16 105.29,192.48 C 125.41,192.48 138.25,186.91 151.38,181.41 C 160.19,177.21 166.13,174.32 176.22,172.61 C 187.66,170.49 194.93,170.16 202.23,170.16 H 211.82 L 212.01,142.91 Z" fill="white"/>
<path d="M 9.1,179.33 C 13.44,195.81 22.22,206.77 39.39,216.36 C 62.31,229.87 81.72,241.02 108.23,253.39 C 129.46,243.91 153.02,231.66 177.92,215.62 C 191.91,206.77 203.13,195.43 209.01,179.2 C 200.32,179.2 187.92,179.46 175.83,183.31 C 160.8,187.83 151.72,195.11 134.47,198.9 C 120.11,202.39 107.12,202.14 94.48,200.31 C 75.73,197.71 66.47,190.71 52.51,186.19 C 39.97,181.63 32.41,179.33 17.06,179.33 H 9.1 Z" fill="white"/>
<path d="M 108.17,24.71 L 107.98,24.39 L 107.78,24.71 C 93.91,47.74 82.31,62.62 82.31,77.11 C 82.31,90.96 93.53,103.33 108.01,103.33 C 122.23,103.33 134.32,90.96 134.32,77.11 C 134.32,63.26 123.69,50.06 108.17,24.71 Z M 107.88,94.71 C 97.82,94.71 90.12,86.75 90.12,77.34 C 90.12,68.28 99.12,57.07 107.88,42.58 C 116.02,56.28 125.41,68.65 125.41,77.4 C 125.41,87.31 118.21,94.71 107.88,94.71 Z" fill="black"/>
</svg>