<svg xmlns="http://www.w3.org/2000/svg" width="250" height="250" viewBox="0 0 250 250" fill="none">
<rect width="250" height="250" fill="#FEFFFE"/>
<path d="M 124.88,243.19 L 124.5,243.38 L 124.12,243.19 C 105.07,234.29 70.15,216.69 50.19,201.88 C 38.48,193.34 33.33,183.51 30.91,171.31 L 30.64,171.31 H 30.63 C 46.01,171.31 56.72,172.71 66.79,176.49 C 77.16,180.4 88.98,189.93 113.98,193.28 C 125.02,194.55 137.94,193.72 148.11,190.71 C 164.81,185.59 174.82,178.44 190.17,174.71 C 199.21,172.34 207.73,171.31 217.37,171.31 L 217.09,172.86 C 214.18,185.53 208.09,195.28 197.67,203.33 C 178.81,217.56 147.12,233.22 124.88,243.19 Z" stroke="#152C3F" stroke-width="1.7008" stroke-miterlimit="10"/>
<path d="M 29.81,136.87 C 48.87,136.87 59.82,137.86 70.21,141.02 C 84.41,145.67 93.06,153.73 115.56,158.54 C 104.36,164.86 93.85,167.74 78.41,167.74 C 68.98,167.74 60.92,163.18 30.05,163.18 L 29.81,136.87 Z" stroke="#152C3F" stroke-width="1.7008" stroke-miterlimit="10"/>
<path d="M 219.41,137.18 C 202.06,136.72 187.03,137.99 173.99,143.09 C 156.64,149.61 150.91,154.81 134.82,162.18 C 121.91,168.37 106.77,173.97 86.41,175.26 C 97.39,179.91 105.71,183.91 122.72,184.09 C 146.19,184.36 160.12,174.97 176.92,169.18 C 189.62,164.41 201.08,163.36 218.99,163.18 L 219.41,137.18 Z" stroke="#152C3F" stroke-width="1.7008" stroke-miterlimit="10"/>
<path d="M 29.81,102.42 C 50.63,102.42 65.99,103.14 80.88,107.76 C 99.89,113.49 118.71,127.97 143.62,133.93 C 150.03,135.65 156.44,136.31 164.59,137.32 C 153.09,142.14 146.81,146.97 131.72,151.55 C 120.23,150.03 110.83,149.81 100.28,144.78 C 84.97,137.41 73.81,129.01 45.11,128.11 H 29.73 L 29.81,102.42 Z" stroke="#152C3F" stroke-width="1.7008" stroke-miterlimit="10"/>
<path d="M 219.28,102.64 C 197.12,102.01 175.25,103.98 157.69,112.04 C 149.16,116.14 145.18,119.61 133.69,121.53 C 145.18,127.71 156.89,130.78 171.79,130.78 C 182.99,130.78 188.16,127.89 205.91,127.89 H 219.41 L 219.28,102.64 Z" stroke="#152C3F" stroke-width="1.7008" stroke-miterlimit="10"/>
<path d="M 29.81,7 H 219.19 V 93.21 C 194.94,92.76 173.06,93.31 153.11,102.92 C 140.96,108.47 133.81,114.89 123.83,114.89 C 113.85,114.89 104.72,105.85 88.01,100.13 C 73.61,94.91 58.01,93.41 38.87,93.21 H 29.81 V 7 Z" stroke="#152C3F" stroke-width="1.7008" stroke-miterlimit="10"/>
<path d="M 124.5,23.72 C 114.79,42.53 100.82,58.23 100.82,74.94 C 100.82,88.51 111.78,99.46 124.5,99.46 C 137.71,99.46 148.66,87.31 148.66,74.94 C 148.66,61.72 135.45,45.48 124.5,23.72 Z" stroke="#152C3F" stroke-width="1.7008" stroke-miterlimit="10"/>
<path d="M 124.5,41.53 C 116.78,54.91 108.61,66.21 108.61,75.52 C 108.61,84.92 116.06,90.95 124.11,90.95 C 133.06,90.95 140.24,82.63 140.24,74.43 C 140.24,66.71 131.62,54.78 124.5,41.53 Z" stroke="#152C3F" stroke-width="1.7008" stroke-miterlimit="10"/>
</svg>